Release Group: EuReKA

Container: MKV

Format: x264

Resolution: 1080p

Source Media: Blu-Ray

Audio Format: AC3

Audio Channels: 5.1

Audio Bitrate: 640





General

Complete name : E:MoviesSpeed.Racer.2008.BluRay.1080p.AC3.x264.dxva-EuReKA3. MovieSpeed.Racer.2008.BluRay.1080p.AC3.x264.dxva-EuReKA.mkv

Format : Matroska

File size : 8.73 GiB

Duration : 2h 15mn

Overall bit rate : 9 254 Kbps

Encoded date : UTC 2008-09-11 01:25:23

Writing application : mkvmerge v2.2.0 (Turn It On Again) built on Mar 4 2008 12:58:26

Writing library : libebml v0.7.7 + libmatroska v0.8.1



Video

ID : 1

Format : AVC

Format/Info : Advanced Video Codec

Format profile : High@L4.1

Format settings, CABAC : Yes

Format settings, ReFrames : 4 frames

Muxing mode : Container profile=Unknown@4.1

Codec ID : V_MPEG4/ISO/AVC

Duration : 2h 14mn

Bit rate : 8 427 Kbps

Width : 1 920 pixels

Height : 816 pixels

Display aspect ratio : 2.35

Frame rate : 23.976 fps

Resolution : 24 bits

Colorimetry : 4:2:0

Scan type : Progressive

Bits/(Pixel*Frame) : 0.224

Stream size : 7.94 GiB (91%)

Title : x264 - crf encode

Writing library : x264 core 61 r965M 3d2983d

Encoding settings : cabac=1 / ref=4 / deblock=1:-2:-2 / analyse=0x3:0x113 / me=umh / subme=7 / psy_rd=1.0:0.0 / brdo=1 / mixed_ref=1 /

me_range=16 / chroma_me=1 / trellis=0 / 8x8dct=1 / cqm=0 / deadzone=6,4 / chroma_qp_offset=-2 / threads=3 / nr=0 /

decimate=0 /mbaff=0 / bframes=3 / b_pyramid=1 / b_adapt=1 / b_bias=0 / direct=3 / wpredb=1 / bime=1 / keyint=250 /

 keyint_min=25 / scenecut=40(pre) /rc=crf / crf=21.0 / qcomp=1.00 / qpmin=10 / qpmax=51 / qpstep=4 / vbv_maxrate=38000 /

 vbv_bufsize=30000 / ip_ratio=1.40 / pb_ratio=1.30 / aq=2:1.00

Language : English



Audio

ID : 2

Format : AC-3

Format/Info : Audio Coding 3

Codec ID : A_AC3

Duration : 2h 15mn

Bit rate mode : Constant

Bit rate : 640 Kbps

Channel(s) : 6 channels

Channel positions : Front: L C R, Surround: L R, LFE

Sampling rate : 48.0 KHz

Stream size : 618 MiB (7%)

Title : AC3 - 640 kbit/sec

Language : English



Text #1

ID : 3

Format : UTF-8

Codec ID : S_TEXT/UTF8

Codec ID/Info : UTF-8 Plain Text

Language : English



Text #2

ID : 4

Format : UTF-8

Codec ID : S_TEXT/UTF8

Codec ID/Info : UTF-8 Plain Text



Screens:


 
http://www.imagebam.com/image/652e2f13050289
 
http://www.imagebam.com/image/299ac213050292
 
http://www.imagebam.com/image/66130313050295
 
http://www.imagebam.com/image/a2a75113050297
 
http://www.imagebam.com/image/e6841c13050300
 
http://www.imagebam.com/image/0343f013050303